 <svg version="1.0" xmlns="http://www.w3.org/2000/svg" width="700.000000pt" height="701.000000pt" viewBox="0 0 700.000000 701.000000" preserveAspectRatio="xMidYMid meet">
<metadata>
Created by potrace 1.12, written by Peter Selinger 2001-2015
</metadata>
<g transform="translate(0.000000,701.000000) scale(0.100000,-0.100000)" fill="#000000" stroke="none">
<path d="M3234 6770 c-57 -18 -57 -19 -120 -290 -35 -153 -69 -262 -83 -269
-9 -5 -52 -16 -96 -26 -44 -10 -131 -33 -194 -52 l-113 -34 -132 138 c-72 76
-157 166 -190 200 -32 34 -67 65 -76 68 -30 10 -184 -68 -470 -236 -74 -44
-130 -92 -130 -111 1 -30 58 -239 116 -425 l35 -112 -152 -148 c-83 -81 -157
-149 -165 -151 -14 -3 -176 42 -411 115 -63 19 -122 32 -133 28 -32 -10 -120
-131 -208 -284 -116 -205 -155 -287 -145 -304 4 -8 96 -99 203 -203 136 -132
195 -195 193 -209 0 -11 -17 -74 -37 -140 -20 -66 -44 -151 -52 -190 -9 -38
-20 -74 -25 -79 -4 -5 -45 -18 -91 -28 -46 -11 -108 -25 -138 -33 -30 -7 -104
-25 -165 -40 -60 -14 -121 -32 -135 -38 -47 -24 -54 -67 -58 -367 -2 -257 -1
-277 17 -306 15 -25 29 -33 72 -42 71 -15 338 -77 412 -95 33 -8 62 -19 67
-23 4 -5 17 -54 29 -109 19 -84 36 -147 88 -325 2 -10 -71 -85 -202 -209 -157
-149 -205 -199 -205 -218 0 -13 15 -57 33 -96 40 -85 207 -377 244 -425 45
-60 51 -60 254 -2 101 28 218 63 260 76 l77 25 168 -172 c93 -94 169 -177 168
-183 -1 -6 -15 -56 -32 -111 -27 -89 -53 -179 -98 -340 -7 -27 -14 -60 -14
-72 0 -41 90 -102 415 -282 154 -86 151 -86 277 47 57 59 141 147 189 195 l85
89 75 -25 c95 -33 334 -97 359 -97 26 0 44 -31 64 -110 9 -36 21 -81 26 -100
10 -42 33 -138 56 -242 18 -82 31 -100 79 -113 54 -15 515 -18 560 -4 70 22
74 30 106 179 25 122 83 338 95 357 8 13 22 23 32 23 31 0 319 75 401 104 l44
16 136 -142 c76 -79 159 -167 185 -195 32 -35 57 -53 72 -53 21 0 133 54 249
120 138 78 187 108 249 153 l68 51 -6 57 c-3 31 -10 68 -15 80 -10 25 -26 81
-81 279 l-32 116 177 177 176 177 57 -19 c121 -41 408 -121 432 -121 31 0 47
12 81 60 42 58 215 361 243 424 47 106 51 98 -164 301 -136 128 -189 183 -184
195 29 71 102 332 111 396 3 24 11 48 17 52 10 8 167 48 346 88 141 31 150 34
168 61 15 24 17 60 20 288 4 271 -4 349 -36 378 -9 9 -55 25 -102 37 -101 25
-133 33 -225 58 -38 11 -94 25 -123 32 -62 14 -59 9 -102 172 -16 65 -43 156
-59 203 l-29 86 107 103 c58 57 142 136 186 175 44 40 84 81 89 91 12 27 -10
82 -89 220 -36 62 -65 114 -65 116 0 14 -100 168 -138 213 -42 50 -48 53 -82
48 -33 -4 -214 -52 -370 -98 -130 -38 -106 -49 -284 127 l-158 157 27 91 c15
50 33 114 40 141 8 28 21 75 30 105 9 30 24 83 33 117 15 60 15 63 -4 84 -66
74 -511 329 -573 329 -21 0 -39 -11 -67 -42 -21 -24 -105 -112 -186 -197
l-149 -154 -37 12 c-103 34 -317 91 -343 91 -9 0 -22 7 -29 14 -11 14 -68 224
-114 426 -32 138 -23 134 -376 137 -151 1 -289 -2 -306 -7z m411 -940 c436
-27 795 -145 1150 -378 794 -520 1190 -1479 995 -2412 -127 -609 -525 -1171
-1055 -1493 -222 -135 -452 -229 -685 -281 -41 -10 -93 -22 -115 -27 -22 -5
-124 -16 -226 -26 -174 -16 -197 -16 -370 -1 -114 11 -237 29 -324 48 -684
154 -1267 613 -1570 1235 -144 296 -213 555 -235 885 -43 656 202 1303 675
1776 326 326 722 539 1182 634 84 18 234 36 358 43 28 2 52 4 55 5 3 1 77 -3
165 -8z"></path>
<path d="M2347 4786 c-46 -17 -72 -39 -86 -74 -8 -19 -11 -359 -9 -1197 3
-1152 3 -1170 23 -1197 45 -61 -27 -58 1240 -58 1255 0 1181 -3 1235 55 l25
27 3 464 3 464 -246 0 -245 0 0 -250 0 -250 -767 2 -768 3 0 745 0 745 768 3
767 2 0 -245 0 -245 245 0 245 0 0 458 c0 436 -1 458 -20 489 -10 18 -34 40
-52 50 -31 17 -97 18 -1178 20 -949 2 -1152 0 -1183 -11z"></path>
<path d="M3960 3530 l0 -210 565 0 565 0 -2 208 -3 207 -562 3 -563 2 0 -210z"></path>
</g>
</svg>