<?xml version="1.0" standalone="no"?>
<!DOCTYPE svg PUBLIC "-//W3C//DTD SVG 20010904//EN"
 "http://www.w3.org/TR/2001/REC-SVG-20010904/DTD/svg10.dtd">
<svg version="1.0" xmlns="http://www.w3.org/2000/svg"
 width="483.000000pt" height="484.000000pt" viewBox="0 0 483.000000 484.000000"
 preserveAspectRatio="xMidYMid meet">

<g transform="translate(0.000000,484.000000) scale(0.100000,-0.100000)"
fill="#000000" stroke="none">
<path d="M2233 4673 c-12 -2 -26 -10 -31 -16 -6 -7 -29 -88 -52 -182 -23 -93
-47 -175 -53 -181 -11 -10 -243 -75 -278 -78 -8 0 -73 61 -144 137 -71 75
-134 137 -141 137 -20 0 -76 -27 -204 -99 -163 -91 -200 -118 -200 -145 0 -12
23 -101 50 -196 28 -95 47 -176 43 -180 -4 -3 -54 -50 -110 -104 l-102 -98
-175 51 c-96 28 -184 51 -195 51 -13 0 -35 -22 -64 -62 -54 -76 -174 -287
-182 -320 -5 -20 15 -43 135 -157 111 -106 141 -139 137 -155 -3 -12 -17 -61
-31 -111 -14 -49 -30 -108 -36 -130 l-10 -41 -186 -44 c-161 -39 -189 -48
-203 -70 -13 -20 -17 -61 -19 -220 -3 -178 -2 -198 15 -218 14 -18 52 -31 191
-62 96 -22 177 -42 182 -45 5 -3 18 -47 30 -99 11 -51 30 -122 40 -156 l19
-63 -92 -86 c-51 -47 -116 -109 -146 -137 l-55 -51 23 -54 c50 -114 185 -336
210 -344 10 -3 95 18 190 45 96 28 178 50 185 48 6 -2 61 -55 123 -118 l112
-115 -53 -180 c-38 -129 -51 -185 -44 -198 5 -10 28 -31 51 -48 68 -50 304
-179 325 -179 13 0 67 50 150 137 l130 136 73 -23 c41 -13 114 -33 163 -46 49
-12 92 -28 96 -34 4 -6 21 -75 39 -153 49 -211 46 -205 93 -218 25 -6 110 -9
219 -7 149 2 181 6 195 19 9 10 31 81 50 160 50 216 44 202 90 212 21 5 97 24
168 44 l130 36 126 -133 c151 -159 129 -157 326 -43 150 86 204 126 204 151 0
10 -20 88 -45 174 -25 86 -45 161 -45 166 0 5 54 64 121 131 l121 122 62 -20
c173 -56 277 -81 295 -72 40 22 221 340 221 390 0 9 -59 72 -131 141 l-131
125 30 100 c17 55 37 128 44 162 14 73 1 66 213 113 77 17 147 38 155 46 12
12 16 51 18 198 4 193 -5 262 -36 274 -9 3 -89 24 -177 47 l-160 41 -12 39
c-6 22 -27 93 -46 158 l-34 118 135 128 136 128 -14 34 c-24 62 -164 301 -200
341 l-35 40 -179 -52 -180 -51 -110 110 -110 110 47 163 c26 90 47 173 47 185
0 13 -15 34 -36 51 -52 43 -314 191 -349 197 -28 5 -38 -3 -155 -129 -108
-117 -128 -135 -150 -130 -14 2 -81 19 -150 37 l-125 33 -41 160 c-22 87 -43
171 -47 186 -6 22 -15 28 -57 37 -48 10 -349 13 -397 4z m512 -673 c145 -31
264 -72 400 -140 441 -220 750 -624 856 -1120 20 -90 23 -135 23 -310 0 -175
-3 -220 -23 -310 -32 -151 -73 -268 -141 -405 -220 -441 -624 -750 -1120 -856
-90 -20 -135 -23 -310 -23 -175 0 -220 3 -310 23 -151 32 -268 73 -405 141
-441 220 -750 624 -856 1120 -20 90 -23 135 -23 310 0 175 3 220 23 310 117
546 481 981 988 1180 109 43 264 84 378 99 116 16 404 5 520 -19z"/>
<path d="M1584 3276 l-34 -34 0 -807 0 -807 34 -34 34 -34 807 0 807 0 34 34
34 34 0 316 0 316 -170 0 -170 0 0 -175 0 -175 -530 0 -530 0 0 520 0 520 530
0 530 0 0 -170 0 -170 170 0 170 0 0 316 0 316 -34 34 -34 34 -807 0 -807 0
-34 -34z"/>
<path d="M2730 2435 l0 -145 390 0 390 0 0 145 0 145 -390 0 -390 0 0 -145z"/>
</g>
</svg>
